<svg width="14" height="15" viewBox="0 0 14 15" fill="none" xmlns="http://www.w3.org/2000/svg">
<path d="M10.1951 5.75645C10.1994 5.75643 10.2038 5.75642 10.2082 5.75642C11.6579 5.75642 12.8332 6.93382 12.8332 8.38626C12.8332 9.73988 11.8123 10.8546 10.4998 11M10.1951 5.75645C10.2037 5.6602 10.2082 5.56273 10.2082 5.46422C10.2082 3.68905 8.77177 2.25 6.99984 2.25C5.32173 2.25 3.94453 3.54072 3.80342 5.18529M10.1951 5.75645C10.1354 6.41943 9.87485 7.02435 9.4748 7.50963M3.80342 5.18529C2.32383 5.32634 1.1665 6.57477 1.1665 8.09401C1.1665 9.50766 2.16853 10.6869 3.49984 10.9576M3.80342 5.18529C3.89549 5.17651 3.9888 5.17202 4.08317 5.17202C4.7399 5.17202 5.34594 5.38947 5.83346 5.75642" stroke="#454545" stroke-width="0.875" stroke-linecap="round" stroke-linejoin="round"/>
<path d="M6.99984 12.7507V8.08398M6.99984 12.7507C6.59139 12.7507 5.82823 11.5873 5.5415 11.2923M6.99984 12.7507C7.40829 12.7507 8.17146 11.5873 8.45817 11.2923" stroke="#454545" stroke-width="0.875" stroke-linecap="round" stroke-linejoin="round"/>
</svg>
